<svg width="1422" height="431" viewBox="0 0 1422 431" fill="none" xmlns="http://www.w3.org/2000/svg">
<g clip-path="url(#clip0_6_89)">
<path opacity="0.6" d="M0 427C237 293.667 474 268.667 711 352C948 435.333 1182 210.833 1419 177.5" stroke="url(#paint0_linear_6_89)" stroke-width="2" stroke-linecap="round" stroke-dasharray="8 11"/>
<path opacity="0.96" d="M0 401C237 284.333 474 267.667 711 351C948 434.333 1182.5 227.5 1419.5 177.5" stroke="url(#paint1_linear_6_89)" stroke-width="2" stroke-linecap="round" stroke-dasharray="9 4"/>
<path opacity="0.52" d="M0 376C237 276 474 267.667 711 351C948 434.333 1183.5 244.667 1420.5 178" stroke="url(#paint2_linear_6_89)" stroke-width="2" stroke-linecap="round" stroke-dasharray="2 6"/>
<path opacity="0.12" d="M0 351C237 267.667 474 267.667 711 351C948 434.333 1182 258.833 1419 175.5" stroke="url(#paint3_linear_6_89)" stroke-width="2" stroke-linecap="round" stroke-dasharray="11 2"/>
<path opacity="0.18" d="M0 326C237 259.333 474 267.667 711 351C948 434.333 1155.5 175 1422 175" stroke="url(#paint4_linear_6_89)" stroke-width="2" stroke-linecap="round" stroke-dasharray="7 4"/>
<path opacity="0.26" d="M0 301C237 251 474 267.667 711 351C948 434.333 1181 292.167 1418 175.5" stroke="url(#paint5_linear_6_89)" stroke-width="2" stroke-linecap="round" stroke-dasharray="2 2"/>
<path opacity="0.3" d="M0 276C237 242.667 474 267.667 711 351C948 434.333 1185 310.333 1422 177" stroke="url(#paint6_linear_6_89)" stroke-width="2" stroke-linecap="round" stroke-dasharray="7 1"/>
<path opacity="0.68" d="M0 251C237 234.333 474 267.667 711 351C948 434.333 1183.5 325.5 1420.5 175.5" stroke="url(#paint7_linear_6_89)" stroke-width="2" stroke-linecap="round" stroke-dasharray="1 6"/>
<path opacity="0.56" d="M0 226C237 226 474 267.667 711 351C948 434.333 1181 341.667 1418 175" stroke="url(#paint8_linear_6_89)" stroke-width="2" stroke-linecap="round" stroke-dasharray="9 3"/>
<path opacity="0.38" d="M0 201C237 217.667 474 267.667 711 351C948 434.333 1180 358.333 1417 175" stroke="url(#paint9_linear_6_89)" stroke-width="2" stroke-linecap="round" stroke-dasharray="3 7"/>
<path opacity="0.26" d="M0 176C237 209.333 474 267.667 711 351C948 434.333 1185 376 1422 176" stroke="url(#paint10_linear_6_89)" stroke-width="2" stroke-linecap="round" stroke-dasharray="8 1"/>
<path opacity="0.31" d="M4 166C241 216 478.5 271.667 715.5 355C952.5 438.333 1184.5 392.167 1421.5 175.5" stroke="url(#paint11_linear_6_89)" stroke-width="2" stroke-linecap="round" stroke-dasharray="4 7"/>
<path opacity="0.65" d="M0 126C237 192.667 474 267.667 711 351C948 434.333 1185.5 411.333 1422.5 178" stroke="url(#paint12_linear_6_89)" stroke-width="2" stroke-linecap="round" stroke-dasharray="6 5"/>
<path opacity="0.14" d="M0 101C237 184.333 474 267.667 711 351C948 434.333 1184.5 428 1421.5 178" stroke="url(#paint13_linear_6_89)" stroke-width="2" stroke-linecap="round" stroke-dasharray="5 3"/>
<path opacity="0.12" d="M0 76C237 176 474 267.667 711 351C948 434.333 1185 442.667 1422 176" stroke="url(#paint14_linear_6_89)" stroke-width="2" stroke-linecap="round" stroke-dasharray="3 6"/>
<path opacity="0.25" d="M0 51C237 167.667 474 267.667 711 351C948 434.333 1182 463.833 1419 180.5" stroke="url(#paint15_linear_6_89)" stroke-width="2" stroke-linecap="round"/>
<path opacity="0.98" d="M0 26C237 159.333 474 267.667 711 351C948 434.333 1185.5 476.5 1422.5 176.5" stroke="url(#paint16_linear_6_89)" stroke-width="2" stroke-linecap="round" stroke-dasharray="10 3"/>
<path opacity="0.38" d="M0 1C237 151 474 267.667 711 351C948 434.333 1185 492.667 1422 176" stroke="url(#paint17_linear_6_89)" stroke-width="2" stroke-linecap="round" stroke-dasharray="8 4"/>
</g>
<defs>
<linearGradient id="paint0_linear_6_89" x1="2.1112e-05" y1="304" x2="1424" y2="304" gradientUnits="userSpaceOnUse">
<stop offset="0.306045" stop-color="#FF0000"/>
<stop offset="1" stop-color="#40FF00" stop-opacity="0.83"/>
</linearGradient>
<linearGradient id="paint1_linear_6_89" x1="2.1112e-05" y1="304" x2="1424" y2="304" gradientUnits="userSpaceOnUse">
<stop offset="0.306045" stop-color="#FF0000"/>
<stop offset="1" stop-color="#40FF00" stop-opacity="0.83"/>
</linearGradient>
<linearGradient id="paint2_linear_6_89" x1="2.1112e-05" y1="304" x2="1424" y2="304" gradientUnits="userSpaceOnUse">
<stop offset="0.306045" stop-color="#FF0000"/>
<stop offset="1" stop-color="#40FF00" stop-opacity="0.83"/>
</linearGradient>
<linearGradient id="paint3_linear_6_89" x1="2.1112e-05" y1="304" x2="1424" y2="304" gradientUnits="userSpaceOnUse">
<stop offset="0.306045" stop-color="#FF0000"/>
<stop offset="1" stop-color="#40FF00" stop-opacity="0.83"/>
</linearGradient>
<linearGradient id="paint4_linear_6_89" x1="2.1112e-05" y1="304" x2="1424" y2="304" gradientUnits="userSpaceOnUse">
<stop offset="0.306045" stop-color="#FF0000"/>
<stop offset="1" stop-color="#40FF00" stop-opacity="0.83"/>
</linearGradient>
<linearGradient id="paint5_linear_6_89" x1="2.1112e-05" y1="304" x2="1424" y2="304" gradientUnits="userSpaceOnUse">
<stop offset="0.306045" stop-color="#FF0000"/>
<stop offset="1" stop-color="#40FF00" stop-opacity="0.83"/>
</linearGradient>
<linearGradient id="paint6_linear_6_89" x1="2.1112e-05" y1="304" x2="1424" y2="304" gradientUnits="userSpaceOnUse">
<stop offset="0.306045" stop-color="#FF0000"/>
<stop offset="1" stop-color="#40FF00" stop-opacity="0.83"/>
</linearGradient>
<linearGradient id="paint7_linear_6_89" x1="2.1112e-05" y1="304" x2="1424" y2="304" gradientUnits="userSpaceOnUse">
<stop offset="0.306045" stop-color="#FF0000"/>
<stop offset="1" stop-color="#40FF00" stop-opacity="0.83"/>
</linearGradient>
<linearGradient id="paint8_linear_6_89" x1="2.1112e-05" y1="304" x2="1424" y2="304" gradientUnits="userSpaceOnUse">
<stop offset="0.306045" stop-color="#FF0000"/>
<stop offset="1" stop-color="#40FF00" stop-opacity="0.83"/>
</linearGradient>
<linearGradient id="paint9_linear_6_89" x1="2.1112e-05" y1="304" x2="1424" y2="304" gradientUnits="userSpaceOnUse">
<stop offset="0.306045" stop-color="#FF0000"/>
<stop offset="1" stop-color="#40FF00" stop-opacity="0.83"/>
</linearGradient>
<linearGradient id="paint10_linear_6_89" x1="2.1112e-05" y1="304" x2="1424" y2="304" gradientUnits="userSpaceOnUse">
<stop offset="0.306045" stop-color="#FF0000"/>
<stop offset="1" stop-color="#40FF00" stop-opacity="0.83"/>
</linearGradient>
<linearGradient id="paint11_linear_6_89" x1="2.07014e-05" y1="304" x2="1424" y2="304" gradientUnits="userSpaceOnUse">
<stop offset="0.306045" stop-color="#FF0000"/>
<stop offset="1" stop-color="#40FF00" stop-opacity="0.83"/>
</linearGradient>
<linearGradient id="paint12_linear_6_89" x1="2.1112e-05" y1="304" x2="1424" y2="304" gradientUnits="userSpaceOnUse">
<stop offset="0.306045" stop-color="#FF0000"/>
<stop offset="1" stop-color="#40FF00" stop-opacity="0.83"/>
</linearGradient>
<linearGradient id="paint13_linear_6_89" x1="2.1112e-05" y1="304" x2="1424" y2="304" gradientUnits="userSpaceOnUse">
<stop offset="0.306045" stop-color="#FF0000"/>
<stop offset="1" stop-color="#40FF00" stop-opacity="0.83"/>
</linearGradient>
<linearGradient id="paint14_linear_6_89" x1="2.1112e-05" y1="304" x2="1424" y2="304" gradientUnits="userSpaceOnUse">
<stop offset="0.306045" stop-color="#FF0000"/>
<stop offset="1" stop-color="#40FF00" stop-opacity="0.83"/>
</linearGradient>
<linearGradient id="paint15_linear_6_89" x1="2.1112e-05" y1="304" x2="1424" y2="304" gradientUnits="userSpaceOnUse">
<stop offset="0.306045" stop-color="#FF0000"/>
<stop offset="1" stop-color="#40FF00" stop-opacity="0.83"/>
</linearGradient>
<linearGradient id="paint16_linear_6_89" x1="2.1112e-05" y1="304" x2="1424" y2="304" gradientUnits="userSpaceOnUse">
<stop offset="0.306045" stop-color="#FF0000"/>
<stop offset="1" stop-color="#40FF00" stop-opacity="0.83"/>
</linearGradient>
<linearGradient id="paint17_linear_6_89" x1="2.1112e-05" y1="304" x2="1424" y2="304" gradientUnits="userSpaceOnUse">
<stop offset="0.306045" stop-color="#FF0000"/>
<stop offset="1" stop-color="#40FF00" stop-opacity="0.83"/>
</linearGradient>
<clipPath id="clip0_6_89">
<rect width="1422" height="431" fill="white"/>
</clipPath>
</defs>
</svg>
